<?xml version="1.0" encoding="utf-8"?>
<!-- Generator: Adobe Illustrator 24.2.3, SVG Export Plug-In . SVG Version: 6.00 Build 0)  -->
<svg version="1.1" id="Layer_1" xmlns="http://www.w3.org/2000/svg" xmlns:xlink="http://www.w3.org/1999/xlink" x="0px" y="0px"
	 viewBox="0 0 128.6 39.5" style="enable-background:new 0 0 128.6 39.5;" xml:space="preserve">
<style type="text/css">
	.st0{fill:#6F368C;}
	.st1{fill:#4EAAE0;}
	.st2{opacity:0.3;}
	.st3{fill:#FFFFFF;}
	.st4{fill:url(#SVGID_1_);}
	.st5{fill:url(#SVGID_2_);}
	.st6{fill:url(#SVGID_3_);}
	.st7{fill:url(#SVGID_4_);}
	.st8{fill:url(#SVGID_5_);}
	.st9{fill:url(#SVGID_6_);}
	.st10{opacity:0.3;fill:url(#SVGID_7_);}
	.st11{opacity:0.3;fill:url(#SVGID_8_);}
	.st12{opacity:0.3;fill:url(#SVGID_9_);}
	.st13{opacity:0.3;fill:url(#SVGID_10_);}
	.st14{opacity:0.3;fill:url(#SVGID_11_);}
	.st15{opacity:0.3;fill:url(#SVGID_12_);}
	.st16{opacity:0.3;fill:url(#SVGID_13_);}
	.st17{opacity:0.15;fill:url(#SVGID_14_);}
	.st18{fill:url(#SVGID_15_);}
</style>
<g>
	<g>
		<g>
			<path class="st0" d="M3.5,20.3c0.5-0.8,1.2-1.5,2-2.1l2.4-2l7.5-6.3c0.3,0.5,0.7,0.9,1.2,1.3l4,3.3l-6.6,5.6l-4.2,3.5
				c-0.4,0.3-0.7,0.7-1,1.1c-0.9,1.6-0.7,3.8,0.7,5.2c1.5,1.5,4,1.6,5.7,0.2l5.3,4.5l-0.9,0.8C14.9,39.2,8,38.7,4,34.1
				C0.6,30.2,0.6,24.4,3.5,20.3z"/>
			<path class="st0" d="M20.5,5.6l4.8-4c2,2.4,2.1,5.9,0.3,8.4L20.5,5.6z"/>
			<path class="st0" d="M20.5,25.6l6.6-5.6l2.8-2.4c1-0.8,2.1-1.3,3.2-1.5c2.3-0.4,4.8,0.4,6.4,2.3l-2.1,1.8l-5.2,4.4l-6.4,5.4
				c0,0-0.1-0.1-0.1-0.1L20.5,25.6z"/>
		</g>
		<g>
			<path class="st1" d="M15.6,1.6l4.8,4l5.1,4.3l7.5,6.3c-1.1,0.2-2.2,0.7-3.2,1.5l-2.8,2.4l-6.6-5.6l-4-3.3
				c-0.5-0.4-0.8-0.8-1.2-1.3C13.5,7.4,13.6,4,15.6,1.6z"/>
			<path class="st1" d="M8.7,24.7c0.2-0.4,0.6-0.8,1-1.1l4.2-3.5l6.6,5.6l5.2,4.4c0,0,0.1,0.1,0.1,0.1c1.7,1.3,4.2,1.3,5.7-0.2
				c1.4-1.4,1.6-3.6,0.7-5.2l5.2-4.4c2.9,4.1,2.9,9.9-0.5,13.8c-4,4.6-10.9,5.1-15.5,1.2l-0.9-0.8l-5.3-4.5L8.7,24.7z"/>
			<path class="st1" d="M1.4,18.5c1.6-1.9,4.1-2.7,6.4-2.3l-2.4,2c-0.8,0.6-1.4,1.3-2,2.1L1.4,18.5z"/>
		</g>
		<g class="st2">
			<path class="st3" d="M4,34.1c4,4.6,10.9,5.1,15.5,1.2l0.9-0.8l-2.7-2.2l-0.5,0.4c-1.4,1.2-3.2,1.8-4.9,1.8
				c-2.2,0-4.4-0.9-5.9-2.7c-2.3-2.7-2.4-6.5-0.4-9.3c0.4-0.6,0.8-1.1,1.4-1.5l0.9-0.8l2.8-2.3l6.6-5.6l-1.3-1.1
				c-0.5-0.4-0.8-0.8-1.2-1.3l-7.5,6.3l-2.4,2c-0.3,0.3-0.6,0.5-0.9,0.8c-0.4,0.4-0.8,0.9-1.1,1.3C0.6,24.4,0.6,30.2,4,34.1z"/>
			
				<linearGradient id="SVGID_1_" gradientUnits="userSpaceOnUse" x1="-464.9818" y1="-52.6146" x2="-460.8008" y2="-57.5635" gradientTransform="matrix(-1 0 0 -1 -437.8496 -48.6213)">
				<stop  offset="0" style="stop-color:#FFFFFF"/>
				<stop  offset="0.108" style="stop-color:#FAFAFA"/>
				<stop  offset="0.2318" style="stop-color:#ECECEC"/>
				<stop  offset="0.3633" style="stop-color:#D5D5D5"/>
				<stop  offset="0.5004" style="stop-color:#B5B5B5"/>
				<stop  offset="0.6417" style="stop-color:#8C8C8C"/>
				<stop  offset="0.7865" style="stop-color:#595959"/>
				<stop  offset="0.9316" style="stop-color:#1E1E1E"/>
				<stop  offset="1" style="stop-color:#000000"/>
			</linearGradient>
			<path class="st4" d="M22.9,7.6l2.7,2.3c1.7-2.4,1.7-5.7-0.1-8.1l-2.1,4.8C23.3,7,23.1,7.3,22.9,7.6z"/>
			<path class="st3" d="M23.4,6.6l2.1-4.8c-0.1-0.1-0.1-0.2-0.2-0.3l-4.8,4l2.4,2C23.1,7.3,23.3,7,23.4,6.6z"/>
			<path class="st3" d="M15.4,1.8c0.1-0.1,0.1-0.2,0.2-0.3l4.8,4l2.4,2l2.7,2.3l7.5,6.3c-1.1,0.2-2.2,0.7-3.2,1.5l-0.2,0.1l-6.6-5.6
				l-2.7-2.2l-1.1-0.9c-0.5-0.4-1-1-1.4-1.5c-0.2-0.3-0.4-0.7-0.5-1L15.4,1.8z"/>
			
				<linearGradient id="SVGID_2_" gradientUnits="userSpaceOnUse" x1="-454.1913" y1="-55.4522" x2="-474.2145" y2="-72.9725" gradientTransform="matrix(-1 0 0 -1 -437.8496 -48.6213)">
				<stop  offset="0" style="stop-color:#FFFFFF"/>
				<stop  offset="1" style="stop-color:#000000"/>
			</linearGradient>
			<path class="st5" d="M15.4,1.8l2.1,4.8c0.2,0.3,0.3,0.7,0.5,1c0.4,0.6,0.8,1.1,1.4,1.5l1.1,0.9l2.7,2.2l6.6,5.6l-2.7,2.2
				l-6.6-5.6l-2.7-2.2l-1.3-1.1c-0.5-0.4-0.8-0.8-1.2-1.3C13.6,7.5,13.6,4.2,15.4,1.8z"/>
			<path class="st3" d="M8.7,24.7c0.2-0.4,0.6-0.8,1-1.1l1.5-1.3l6.6,5.6l2.7,2.2l2.7,2.2l0.5,0.4c1.4,1.2,3.2,1.8,4.9,1.8
				c2.2,0,4.4-0.9,5.9-2.7c2.3-2.7,2.4-6.5,0.4-9.3l2.6-2.2c2.9,4.1,2.9,9.9-0.5,13.8c-4,4.6-10.9,5.1-15.5,1.2l-0.9-0.8l-2.7-2.2
				l-2.7-2.2L8.7,24.7z"/>
			
				<linearGradient id="SVGID_3_" gradientUnits="userSpaceOnUse" x1="-467.8283" y1="-59.2376" x2="-445.3875" y2="-79.9719" gradientTransform="matrix(-1 0 0 -1 -437.8496 -48.6213)">
				<stop  offset="0" style="stop-color:#FFFFFF"/>
				<stop  offset="0.108" style="stop-color:#FAFAFA"/>
				<stop  offset="0.2318" style="stop-color:#ECECEC"/>
				<stop  offset="0.3633" style="stop-color:#D5D5D5"/>
				<stop  offset="0.5004" style="stop-color:#B5B5B5"/>
				<stop  offset="0.6417" style="stop-color:#8C8C8C"/>
				<stop  offset="0.7865" style="stop-color:#595959"/>
				<stop  offset="0.9316" style="stop-color:#1E1E1E"/>
				<stop  offset="1" style="stop-color:#000000"/>
			</linearGradient>
			<path class="st6" d="M6.1,22.5c0.4-0.6,0.8-1.1,1.4-1.5l0.9-0.8l2.8-2.3l6.6-5.6l2.7,2.2l-6.6,5.6l-2.7,2.2l-1.5,1.3
				c-0.4,0.3-0.7,0.7-1,1.1c-0.9,1.6-0.7,3.8,0.7,5.2c1.5,1.5,4,1.6,5.7,0.2l2.7,2.2l-0.5,0.4c-1.4,1.2-3.2,1.8-4.9,1.8
				c-2.2,0-4.4-0.9-5.9-2.7C4.3,29.1,4.2,25.3,6.1,22.5z"/>
			
				<linearGradient id="SVGID_4_" gradientUnits="userSpaceOnUse" x1="-445.6595" y1="-66.1765" x2="-439.4648" y2="-66.1765" gradientTransform="matrix(-1 0 0 -1 -437.8496 -48.6213)">
				<stop  offset="0" style="stop-color:#FFFFFF"/>
				<stop  offset="1" style="stop-color:#000000"/>
			</linearGradient>
			<path class="st7" d="M5.5,18.2l2.4-2c-2.2-0.4-4.6,0.3-6.2,2.1l3,0.7C4.9,18.7,5.1,18.5,5.5,18.2z"/>
			<path class="st3" d="M3.5,20.3c0.3-0.5,0.7-0.9,1.1-1.3l-3-0.7c-0.1,0.1-0.2,0.2-0.2,0.3L3.5,20.3z"/>
			
				<linearGradient id="SVGID_5_" gradientUnits="userSpaceOnUse" x1="-477.1621" y1="-70.6135" x2="-458.3151" y2="-70.6135" gradientTransform="matrix(-1 0 0 -1 -437.8496 -48.6213)">
				<stop  offset="0" style="stop-color:#FFFFFF"/>
				<stop  offset="0.108" style="stop-color:#FAFAFA"/>
				<stop  offset="0.2318" style="stop-color:#ECECEC"/>
				<stop  offset="0.3633" style="stop-color:#D5D5D5"/>
				<stop  offset="0.5004" style="stop-color:#B5B5B5"/>
				<stop  offset="0.6417" style="stop-color:#8C8C8C"/>
				<stop  offset="0.7865" style="stop-color:#595959"/>
				<stop  offset="0.9316" style="stop-color:#1E1E1E"/>
				<stop  offset="1" style="stop-color:#000000"/>
			</linearGradient>
			<path class="st8" d="M20.5,25.6l6.6-5.6l2.7-2.2l0.2-0.1c1-0.8,2.1-1.3,3.2-1.5c2.2-0.4,4.6,0.3,6.2,2.1l-3,0.7l-2.1,0.5
				c-0.6,0.1-1.2,0.4-1.7,0.7c-0.4,0.2-0.8,0.5-1.1,0.8l-1.6,1.4l-6.6,5.6L20.5,25.6z"/>
			<path class="st3" d="M23.1,27.9l6.6-5.6l1.6-1.4c0.3-0.3,0.7-0.5,1.1-0.8c0.5-0.3,1.1-0.5,1.7-0.7l2.1-0.5l3-0.7
				c0.1,0.1,0.2,0.2,0.2,0.3l-2.1,1.8l-2.6,2.2l-2.6,2.2l-6.4,5.4c0,0-0.1-0.1-0.1-0.1L23.1,27.9z"/>
			
				<linearGradient id="SVGID_6_" gradientUnits="userSpaceOnUse" x1="-443.1776" y1="-55.5559" x2="-484.8169" y2="-91.962" gradientTransform="matrix(-1 0 0 -1 -437.8496 -48.6213)">
				<stop  offset="0" style="stop-color:#FFFFFF"/>
				<stop  offset="1" style="stop-color:#000000"/>
			</linearGradient>
			<path class="st9" d="M11.2,22.3l2.7-2.2l6.6,5.6l2.7,2.2l2.6,2.1c0,0,0.1,0.1,0.1,0.1c1.7,1.3,4.2,1.3,5.7-0.2
				c1.4-1.4,1.6-3.6,0.7-5.2l2.6-2.2c1.9,2.8,1.8,6.6-0.4,9.3c-1.5,1.8-3.7,2.7-5.9,2.7c-1.7,0-3.5-0.6-4.9-1.8l-0.5-0.4l-2.7-2.2
				l-2.7-2.2L11.2,22.3z"/>
		</g>
		<g>
			
				<radialGradient id="SVGID_7_" cx="-464.382" cy="-72.8833" r="4.9475" gradientTransform="matrix(-1 0 0 -1 -437.8496 -48.6213)" gradientUnits="userSpaceOnUse">
				<stop  offset="0.7055" style="stop-color:#FFFFFF"/>
				<stop  offset="0.7598" style="stop-color:#FCFCFC"/>
				<stop  offset="0.7989" style="stop-color:#F3F3F3"/>
				<stop  offset="0.8333" style="stop-color:#E3E3E3"/>
				<stop  offset="0.865" style="stop-color:#CDCDCD"/>
				<stop  offset="0.8948" style="stop-color:#B0B0B0"/>
				<stop  offset="0.9232" style="stop-color:#8C8C8C"/>
				<stop  offset="0.9505" style="stop-color:#626262"/>
				<stop  offset="0.9763" style="stop-color:#333333"/>
				<stop  offset="1" style="stop-color:#000000"/>
			</radialGradient>
			<path class="st10" d="M23.4,23.2l-3,2.6l5.2,4.4c0,0,0.1,0.1,0.1,0.1l2.9-2.5C27.1,27.4,24.6,26.3,23.4,23.2z"/>
			
				<radialGradient id="SVGID_8_" cx="-464.139" cy="-52.8742" r="5.8126" gradientTransform="matrix(-1 0 0 -1 -437.8496 -48.6213)" gradientUnits="userSpaceOnUse">
				<stop  offset="0.566" style="stop-color:#FFFFFF"/>
				<stop  offset="0.6091" style="stop-color:#FFFFFF"/>
				<stop  offset="0.6146" style="stop-color:#FFFFFF"/>
				<stop  offset="0.6474" style="stop-color:#F5F5F5"/>
				<stop  offset="0.702" style="stop-color:#DCDCDC"/>
				<stop  offset="0.772" style="stop-color:#B2B2B2"/>
				<stop  offset="0.8544" style="stop-color:#787878"/>
				<stop  offset="0.9462" style="stop-color:#2E2E2E"/>
				<stop  offset="1" style="stop-color:#000000"/>
			</radialGradient>
			<path class="st11" d="M25.5,10c0.9-1.2,1.3-2.7,1.3-4.2c-1-0.7-2-1.7-2.8-3.1l-3.6,3L25.5,10z"/>
			
				<radialGradient id="SVGID_9_" cx="-449.6193" cy="-87.2893" r="10.7765" gradientTransform="matrix(-1 0 0 -1 -437.8496 -48.6213)" gradientUnits="userSpaceOnUse">
				<stop  offset="0.5764" style="stop-color:#FFFFFF"/>
				<stop  offset="0.623" style="stop-color:#FCFCFC"/>
				<stop  offset="0.6565" style="stop-color:#F3F3F3"/>
				<stop  offset="0.686" style="stop-color:#E3E3E3"/>
				<stop  offset="0.7132" style="stop-color:#CDCDCD"/>
				<stop  offset="0.7388" style="stop-color:#B0B0B0"/>
				<stop  offset="0.7631" style="stop-color:#8C8C8C"/>
				<stop  offset="0.7865" style="stop-color:#626262"/>
				<stop  offset="0.8086" style="stop-color:#333333"/>
				<stop  offset="0.829" style="stop-color:#000000"/>
			</radialGradient>
			<path class="st12" d="M13,38c2.3-0.1,4.5-1,6.4-2.6l0.9-0.8L15,30.2c-0.8,0.6-1.7,0.9-2.6,1C13.3,33,13.2,36.1,13,38z"/>
			
				<radialGradient id="SVGID_10_" cx="-449.2495" cy="-66.6687" r="8.7779" gradientTransform="matrix(-1 0 0 -1 -437.8496 -48.6213)" gradientUnits="userSpaceOnUse">
				<stop  offset="0.566" style="stop-color:#FFFFFF"/>
				<stop  offset="0.646" style="stop-color:#FCFCFC"/>
				<stop  offset="0.7037" style="stop-color:#F3F3F3"/>
				<stop  offset="0.7544" style="stop-color:#E3E3E3"/>
				<stop  offset="0.8011" style="stop-color:#CDCDCD"/>
				<stop  offset="0.845" style="stop-color:#B0B0B0"/>
				<stop  offset="0.8869" style="stop-color:#8C8C8C"/>
				<stop  offset="0.9271" style="stop-color:#626262"/>
				<stop  offset="0.965" style="stop-color:#333333"/>
				<stop  offset="1" style="stop-color:#000000"/>
			</radialGradient>
			<path class="st13" d="M16.4,17.9l3.9-3.3l-4-3.3c-0.5-0.4-0.8-0.8-1.2-1.3l-3.9,3.3C14.1,14.6,15.6,16.6,16.4,17.9z"/>
			
				<radialGradient id="SVGID_11_" cx="-460.9393" cy="-81.8427" r="15.9455" gradientTransform="matrix(-1 0 0 -1 -437.8496 -48.6213)" gradientUnits="userSpaceOnUse">
				<stop  offset="0.7521" style="stop-color:#FFFFFF"/>
				<stop  offset="0.7978" style="stop-color:#FCFCFC"/>
				<stop  offset="0.8308" style="stop-color:#F3F3F3"/>
				<stop  offset="0.8597" style="stop-color:#E3E3E3"/>
				<stop  offset="0.8864" style="stop-color:#CDCDCD"/>
				<stop  offset="0.9115" style="stop-color:#B0B0B0"/>
				<stop  offset="0.9354" style="stop-color:#8C8C8C"/>
				<stop  offset="0.9584" style="stop-color:#626262"/>
				<stop  offset="0.98" style="stop-color:#333333"/>
				<stop  offset="1" style="stop-color:#000000"/>
			</radialGradient>
			<path class="st14" d="M9.6,23.6c-0.4,0.3-0.7,0.7-1,1.1l3.3,2.7c0.7-1.3,2.2-3.1,5.5-4.3l-3.7-3.1L9.6,23.6z"/>
			
				<radialGradient id="SVGID_12_" cx="-437.1758" cy="-62.9428" r="8.3782" gradientTransform="matrix(-1 0 0 -1 -437.8496 -48.6213)" gradientUnits="userSpaceOnUse">
				<stop  offset="0.566" style="stop-color:#FFFFFF"/>
				<stop  offset="0.646" style="stop-color:#FCFCFC"/>
				<stop  offset="0.7037" style="stop-color:#F3F3F3"/>
				<stop  offset="0.7544" style="stop-color:#E3E3E3"/>
				<stop  offset="0.8011" style="stop-color:#CDCDCD"/>
				<stop  offset="0.845" style="stop-color:#B0B0B0"/>
				<stop  offset="0.8869" style="stop-color:#8C8C8C"/>
				<stop  offset="0.9271" style="stop-color:#626262"/>
				<stop  offset="0.965" style="stop-color:#333333"/>
				<stop  offset="1" style="stop-color:#000000"/>
			</radialGradient>
			<path class="st15" d="M3.4,20.4c0.5-0.8,1.2-1.5,2-2.1l2.4-2c-1.2-0.2-2.5-0.1-3.7,0.4l-2.1,2.5L3.4,20.4z"/>
			
				<radialGradient id="SVGID_13_" cx="-461.1952" cy="-63.1988" r="6.5553" gradientTransform="matrix(-1 0 0 -1 -437.8496 -48.6213)" gradientUnits="userSpaceOnUse">
				<stop  offset="0.7055" style="stop-color:#FFFFFF"/>
				<stop  offset="0.7598" style="stop-color:#FCFCFC"/>
				<stop  offset="0.7989" style="stop-color:#F3F3F3"/>
				<stop  offset="0.8333" style="stop-color:#E3E3E3"/>
				<stop  offset="0.865" style="stop-color:#CDCDCD"/>
				<stop  offset="0.8948" style="stop-color:#B0B0B0"/>
				<stop  offset="0.9232" style="stop-color:#8C8C8C"/>
				<stop  offset="0.9505" style="stop-color:#626262"/>
				<stop  offset="0.9763" style="stop-color:#333333"/>
				<stop  offset="1" style="stop-color:#000000"/>
			</radialGradient>
			<path class="st16" d="M23.6,17.3l3.4,2.9l2.8-2.4c1-0.8,2.1-1.3,3.2-1.5l-4.7-3.9C26.9,15,25.1,16.5,23.6,17.3z"/>
			
				<radialGradient id="SVGID_14_" cx="-474.1649" cy="-76.3391" r="7.2615" gradientTransform="matrix(-1 0 0 -1 -437.8496 -48.6213)" gradientUnits="userSpaceOnUse">
				<stop  offset="0.4881" style="stop-color:#FFFFFF"/>
				<stop  offset="0.5169" style="stop-color:#F8F8F8"/>
				<stop  offset="0.5596" style="stop-color:#E4E4E4"/>
				<stop  offset="0.6111" style="stop-color:#C3C3C3"/>
				<stop  offset="0.6694" style="stop-color:#959595"/>
				<stop  offset="0.7333" style="stop-color:#5A5A5A"/>
				<stop  offset="0.801" style="stop-color:#131313"/>
				<stop  offset="0.8182" style="stop-color:#000000"/>
			</radialGradient>
			<path class="st17" d="M39.4,27.4c0.1-2.4-0.6-4.9-2.1-7l-5.2,4.4c0.4,0.8,0.6,1.6,0.6,2.5C34.9,26.3,37.7,26.9,39.4,27.4z"/>
		</g>
	</g>
	<linearGradient id="SVGID_15_" gradientUnits="userSpaceOnUse" x1="56.3304" y1="19.7647" x2="127.2616" y2="19.7647">
		<stop  offset="0" style="stop-color:#6F368C"/>
		<stop  offset="0.7063" style="stop-color:#5D8CC9"/>
		<stop  offset="1" style="stop-color:#4EAAE0"/>
	</linearGradient>
	<path class="st18" d="M76.7,22.8c0,1.5-0.3,2.9-0.8,4.1c-0.5,1.2-1.2,2.3-2.1,3.1c-0.9,0.9-2,1.5-3.2,2c-1.2,0.5-2.6,0.7-4,0.7
		c-1.5,0-2.8-0.2-4-0.7c-1.2-0.5-2.3-1.1-3.2-2c-0.9-0.9-1.6-1.9-2.1-3.1c-0.5-1.2-0.8-2.6-0.8-4.1v-16h0c2.5,0,4.5,2,4.5,4.5v11.4
		c0,0.6,0.1,1.3,0.3,1.9c0.2,0.7,0.5,1.3,0.9,1.9c0.4,0.6,1,1,1.7,1.4c0.7,0.4,1.6,0.6,2.7,0.6c1.1,0,2-0.2,2.7-0.6
		c0.7-0.4,1.3-0.8,1.7-1.4c0.4-0.6,0.8-1.2,0.9-1.9c0.2-0.7,0.3-1.3,0.3-1.9V11.3c0-2.5,2-4.5,4.5-4.5h0V22.8z M78.9,6.8h8.5
		c1.2,0,2.4,0.1,3.5,0.4c1.1,0.2,2.1,0.6,3,1.2c0.9,0.6,1.5,1.3,2.1,2.2c0.5,0.9,0.8,2.1,0.8,3.5c0,1.6-0.3,2.9-0.8,3.9
		c-0.5,1-1.3,1.7-2.2,2.3c-0.9,0.5-2,0.9-3.2,1.1c-1.2,0.2-2.5,0.3-3.8,0.3h-3.2v6c0,2.5-2,4.5-4.5,4.5h0V6.8z M86.1,17.8
		c0.6,0,1.3,0,2-0.1c0.7,0,1.3-0.2,1.9-0.4c0.6-0.2,1.1-0.6,1.4-1.1c0.4-0.5,0.6-1.1,0.6-2c0-0.8-0.2-1.4-0.5-1.9
		c-0.3-0.5-0.8-0.8-1.3-1.1c-0.5-0.2-1.1-0.4-1.7-0.5c-0.6-0.1-1.3-0.1-1.9-0.1h-3.2v7.1H86.1z M100.1,6.8h6.9l6.7,17.7l6.8-17.7
		h6.8v21c0,2.4-1.9,4.3-4.3,4.3h0v-21h-0.1l-7.7,21h-3.1l-7.7-21h-0.1v16.7c0,2.4-1.9,4.3-4.3,4.3l0,0V6.8z"/>
</g>
</svg>
